# Blender v2.90.1 OBJ File: ''
# www.blender.org
mtllib M12_Chaffee_black_gun_and_tracks.mtl
o M12_Chaffee_black_gun_and_tracks
v -1.040000 0.563761 -1.755320
v -1.040000 0.491268 -1.639310
v -1.040000 0.517061 -1.633410
v -1.040000 0.602551 -1.770230
v -1.040000 0.464282 -1.809800
v -1.040000 0.294182 -1.690100
v -1.040000 0.313484 -1.673110
v -1.040000 0.468895 -1.782480
v -1.040000 0.613896 -0.746681
v -1.040000 0.588896 -0.745320
v -1.040000 0.613896 0.687319
v -1.040000 0.588896 0.685964
v -1.040000 0.514589 1.600940
v -1.040000 0.488731 1.607470
v -1.040000 0.602551 1.728570
v -1.040000 0.560795 1.712040
v -1.040000 0.492421 1.726850
v -1.040000 0.390676 1.686530
v -1.040000 0.374075 1.706840
v -1.040000 0.490281 1.752900
v -1.040000 0.025000 1.125570
v -1.040000 -0.000000 1.133000
v -1.040000 0.025000 -1.126800
v -1.040000 0.000000 -1.133000
v -0.760000 0.000000 -1.133000
v -0.760000 0.294182 -1.690100
v -0.760000 -0.000000 1.133000
v -0.760000 0.374075 1.706840
v -0.760000 0.490281 1.752900
v -0.760000 0.602551 1.728570
v -0.760000 0.492421 1.726850
v -0.760000 0.390676 1.686530
v -0.760000 0.560795 1.712040
v -0.760000 0.025000 1.125570
v -0.760000 0.025000 -1.126800
v -0.760000 0.313484 -1.673110
v -0.760000 0.468895 -1.782480
v -0.760000 0.563761 -1.755320
v -0.760000 0.602551 -1.770230
v -0.760000 0.464282 -1.809800
v -0.760000 0.553131 -1.738310
v -0.760000 0.550635 1.697290
v 0.760000 0.492421 1.726850
v 0.760000 0.560795 1.712040
v 0.760000 0.602551 1.728570
v 0.760000 0.490281 1.752900
v 0.760000 0.374075 1.706840
v 0.760000 0.390676 1.686530
v 0.760000 0.550635 1.697290
v 1.040000 0.602551 1.728570
v 1.040000 0.490281 1.752900
v 1.040000 0.492421 1.726850
v 1.040000 0.560795 1.712040
v 1.040000 0.374075 1.706840
v 1.040000 0.390676 1.686530
v 1.040000 0.514589 1.600940
v 1.040000 0.488731 1.607470
v 1.040000 0.588896 0.685964
v 1.040000 0.613896 0.687319
v 1.040000 0.588896 -0.745320
v 1.040000 0.613896 -0.746681
v 1.040000 0.491268 -1.639310
v 1.040000 0.517061 -1.633410
v 1.040000 0.602551 -1.770230
v 1.040000 0.563761 -1.755320
v 1.040000 0.468895 -1.782480
v 1.040000 0.313484 -1.673110
v 1.040000 0.294182 -1.690100
v 1.040000 0.464282 -1.809800
v 1.040000 0.000000 -1.133000
v 1.040000 0.025000 -1.126800
v 0.760000 0.294182 -1.690100
v 0.760000 0.000000 -1.133000
v 0.760000 0.464282 -1.809800
v 0.760000 0.602551 -1.770230
v 0.760000 0.563761 -1.755320
v 0.760000 0.468895 -1.782480
v 0.760000 0.313484 -1.673110
v 0.760000 0.553131 -1.738310
v 0.760000 0.025000 -1.126800
v 0.760000 0.025000 1.125570
v 0.760000 -0.000000 1.133000
v 1.040000 -0.000000 1.133000
v 1.040000 0.025000 1.125570
v -0.040000 1.263440 1.075780
v -0.040000 1.342440 1.075780
v -0.040000 1.342440 2.190780
v -0.040000 1.263440 2.190780
v -0.091000 1.364290 1.075780
v -0.091000 1.242290 1.075780
v 0.040000 1.263440 1.075780
v 0.091000 1.242290 1.075780
v 0.091000 1.364290 1.075780
v 0.091000 1.289790 0.911784
v 0.091000 1.242290 0.883597
v 0.091000 1.364290 0.911784
v -0.091000 1.242290 0.883597
v -0.091000 1.289790 0.911784
v -0.091000 1.364290 0.911784
v 0.040000 1.342440 1.075780
v 0.040000 1.263440 2.190780
v 0.040000 1.342440 2.190780
vt -69.107300 22.195299
vt -69.693901 23.722500
vt -71.252098 18.278799
vt -64.307404 20.356701
vt -29.343300 23.184900
vt -29.396900 24.169100
vt 27.059799 24.169100
vt 27.006500 23.184900
vt 63.028999 20.259399
vt 63.286400 19.241400
vt 67.403000 22.078501
vt 68.053802 23.722500
vt 67.986298 19.386700
vt 69.011597 19.302401
vt 66.398804 15.381000
vt 44.606300 0.000000
vt 67.198402 14.727400
vt 44.313801 0.984252
vt -44.606300 0.000000
vt -44.362400 0.984252
vt -66.539200 11.582000
vt -40.944901 39.444500
vt -29.921301 64.247597
vt -40.944901 64.247597
vt -40.944901 -44.606300
vt -29.921301 44.606300
vt -40.944901 44.606300
vt 40.944901 64.336197
vt 29.921301 37.367699
vt 40.944901 37.367699
vt 40.944901 43.370899
vt 29.921301 38.449600
vt 40.944901 38.449600
vt 40.944901 8.772610
vt 29.921301 4.249960
vt 40.944901 4.249960
vt 67.986298 19.386700
vt 69.011597 19.302401
vt 67.403000 22.078501
vt 66.398804 15.381000
vt 44.606300 0.000000
vt 67.198402 14.727400
vt 44.313801 0.984252
vt -44.606300 0.000000
vt -44.362400 0.984252
vt -66.539200 11.582000
vt -65.870499 12.341900
vt -70.176399 18.460400
vt -69.107300 22.195299
vt -68.437500 21.776800
vt -69.693901 23.722500
vt -40.944901 -2.035100
vt -29.921301 3.627190
vt -40.944901 3.627190
vt -40.944901 47.766102
vt -29.921301 55.955101
vt -40.944901 55.955101
vt 68.053802 23.722500
vt 66.822601 21.678600
vt -67.986298 19.386700
vt -69.011597 19.302401
vt -66.398804 15.381000
vt -67.403000 22.078501
vt -66.822601 21.678600
vt -68.053802 23.722500
vt -40.944901 4.249960
vt -29.921301 8.772610
vt -40.944901 8.772610
vt -67.986298 19.386700
vt -69.011597 19.302401
vt -66.398804 15.381000
vt -63.028999 20.259399
vt -67.403000 22.078501
vt -63.286400 19.241400
vt -27.006500 23.184900
vt 29.343300 23.184900
vt -27.059799 24.169100
vt 64.307404 20.356701
vt 29.396900 24.169100
vt 69.107300 22.195299
vt 70.176399 18.460400
vt 71.252098 18.278799
vt 66.539200 11.582000
vt 44.362400 0.984252
vt 44.606300 0.000000
vt 40.944901 64.247597
vt 29.921301 39.444500
vt 40.944901 39.444500
vt 40.944901 55.955101
vt 29.921301 47.766102
vt 40.944901 47.766102
vt 40.944901 3.627190
vt 29.921301 -2.035100
vt 40.944901 -2.035100
vt 71.252098 18.278799
vt 70.176399 18.460400
vt 66.539200 11.582000
vt 69.107300 22.195299
vt 69.693901 23.722500
vt 68.437500 21.776800
vt 44.362400 0.984252
vt 65.870499 12.341900
vt -44.313801 0.984252
vt 44.606300 0.000000
vt -44.606300 0.000000
vt -40.944901 37.367699
vt -29.921301 64.336197
vt -40.944901 64.336197
vt -44.606300 0.000000
vt -44.313801 0.984252
vt 40.944901 44.606300
vt 29.921301 -44.606300
vt 40.944901 -44.606300
vt -40.944901 38.449600
vt -29.921301 43.370899
vt -40.944901 43.370899
vt -42.353699 52.852001
vt -86.251297 49.741798
vt -42.353699 49.741798
vt -3.582680 53.712299
vt -1.574800 49.741798
vt -1.574800 52.852001
vt -3.582680 48.909199
vt 1.574800 49.741798
vt 3.582680 48.909199
vt 3.582680 53.712299
vt 42.353699 53.712299
vt 35.896999 53.712299
vt 35.896999 50.779202
vt -3.582680 -34.787300
vt 3.582680 -42.353699
vt 3.582680 -34.787300
vt -35.896999 50.779202
vt -42.353699 53.712299
vt -42.353699 48.909199
vt -3.582680 -42.353699
vt 3.582680 -35.896999
vt -3.582680 -35.896999
vt 1.574800 52.852001
vt 42.353699 49.741798
vt 86.251297 52.852001
vt 42.353699 52.852001
vt 1.574800 -42.353699
vt -1.574800 -86.251297
vt 1.574800 -86.251297
vt -1.574800 49.741798
vt 1.574800 52.852001
vt -1.574800 52.852001
vt -1.574800 -86.251297
vt 1.574800 -42.353699
vt -1.574800 -42.353699
vt -64.539703 19.341299
vt -70.176399 18.460400
vt -65.870499 12.341900
vt -29.921301 39.444500
vt -29.921301 -44.606300
vt 29.921301 64.336197
vt 29.921301 43.370899
vt 29.921301 8.772610
vt -71.252098 18.278799
vt -29.921301 -2.035100
vt -29.921301 47.766102
vt -67.198402 14.727400
vt -29.921301 4.249960
vt -68.053802 23.722500
vt -67.198402 14.727400
vt 64.539703 19.341299
vt 69.693901 23.722500
vt 65.870499 12.341900
vt 29.921301 64.247597
vt 29.921301 55.955101
vt 29.921301 3.627190
vt -29.921301 37.367699
vt 29.921301 44.606300
vt -29.921301 38.449600
vt -86.251297 52.852001
vt 34.787300 48.909199
vt 42.353699 48.909199
vt -3.582680 -42.353699
vt -34.787300 48.909199
vt -35.896999 53.712299
vt 3.582680 -42.353699
vt 86.251297 49.741798
vt -1.574800 -42.353699
vt 1.574800 49.741798
vt 1.574800 -86.251297
vn -1.0000 0.0000 0.0000
vn 0.0000 0.8843 0.4670
vn 0.0000 1.0000 0.0000
vn 0.0000 0.8377 -0.5461
vn 0.0000 0.3685 -0.9296
vn 0.0000 -0.2118 -0.9773
vn 0.0000 -0.2751 0.9614
vn 0.0000 0.5755 0.8178
vn 1.0000 0.0000 0.0000
vn 0.0000 0.0000 1.0000
vn 0.0000 -1.0000 0.0000
usemtl M_0136_Charcoal
s 1
f 1/1/1 4/2/1 5/3/1
f 3/4/1 10/5/1 9/6/1
f 11/7/1 10/5/1 12/8/1
f 13/9/1 12/8/1 14/10/1
f 13/9/1 16/11/1 15/12/1
f 17/13/1 20/14/1 16/11/1
f 18/15/1 22/16/1 19/17/1
f 21/18/1 24/19/1 22/16/1
f 23/20/1 6/21/1 24/19/1
f 24/22/2 26/23/2 6/24/2
f 22/25/3 25/26/3 24/27/3
f 19/28/4 27/29/4 22/30/4
f 20/31/5 28/32/5 19/33/5
f 15/34/6 29/35/6 20/36/6
f 31/37/1 29/38/1 33/39/1
f 32/40/1 27/41/1 28/42/1
f 34/43/1 25/44/1 27/41/1
f 35/45/1 26/46/1 25/44/1
f 26/46/1 36/47/1 37/48/1
f 38/49/1 41/50/1 39/51/1
f 5/52/7 39/53/7 4/54/7
f 6/55/8 40/56/8 5/57/8
f 33/39/1 30/58/1 42/59/1
f 43/60/9 46/61/9 48/62/9
f 44/63/9 49/64/9 45/65/9
f 51/66/6 45/67/6 50/68/6
f 52/69/9 51/70/9 55/71/9
f 56/72/9 53/73/9 57/74/9
f 58/75/9 56/72/9 57/74/9
f 60/76/9 59/77/9 58/75/9
f 60/76/9 63/78/9 61/79/9
f 65/80/9 66/81/9 69/82/9
f 68/83/9 71/84/9 70/85/9
f 68/86/2 73/87/2 70/88/2
f 69/89/8 72/90/8 68/91/8
f 64/92/7 74/93/7 69/94/7
f 74/95/9 77/96/9 72/97/9
f 76/98/9 75/99/9 79/100/9
f 80/101/9 72/97/9 78/102/9
f 81/103/9 73/104/9 80/101/9
f 48/62/9 82/105/9 81/103/9
f 83/106/4 47/107/4 54/108/4
f 55/71/9 83/109/9 84/110/9
f 70/85/9 84/110/9 83/109/9
f 70/111/3 82/112/3 83/113/3
f 54/114/5 46/115/5 51/116/5
f 86/117/9 88/118/9 85/119/9
f 89/120/10 85/121/10 86/122/10
f 90/123/10 85/121/10 89/120/10
f 85/121/10 90/123/10 91/124/10
f 92/125/10 91/124/10 90/123/10
f 91/124/10 92/125/10 93/126/10
f 93/127/1 96/128/1 94/129/1
f 95/130/11 90/131/11 97/132/11
f 98/133/9 89/134/9 90/135/9
f 89/136/3 96/137/3 99/138/3
f 89/120/10 86/122/10 93/126/10
f 100/139/10 93/126/10 86/122/10
f 91/124/10 93/126/10 100/139/10
f 91/140/1 102/141/1 100/142/1
f 85/143/11 101/144/11 88/145/11
f 88/146/10 102/147/10 87/148/10
f 87/149/3 100/150/3 86/151/3
f 1/1/1 2/152/1 3/4/1
f 5/3/1 6/21/1 8/153/1
f 6/21/1 7/154/1 8/153/1
f 1/1/1 3/4/1 4/2/1
f 5/3/1 8/153/1 1/1/1
f 3/4/1 2/152/1 10/5/1
f 11/7/1 9/6/1 10/5/1
f 13/9/1 11/7/1 12/8/1
f 13/9/1 14/10/1 16/11/1
f 17/13/1 18/15/1 20/14/1
f 18/15/1 19/17/1 20/14/1
f 20/14/1 15/12/1 16/11/1
f 18/15/1 21/18/1 22/16/1
f 21/18/1 23/20/1 24/19/1
f 23/20/1 7/154/1 6/21/1
f 24/22/2 25/155/2 26/23/2
f 22/25/3 27/156/3 25/26/3
f 19/28/4 28/157/4 27/29/4
f 20/31/5 29/158/5 28/32/5
f 15/34/6 30/159/6 29/35/6
f 31/37/1 32/40/1 29/38/1
f 32/40/1 28/42/1 29/38/1
f 29/38/1 30/58/1 33/39/1
f 32/40/1 34/43/1 27/41/1
f 34/43/1 35/45/1 25/44/1
f 35/45/1 36/47/1 26/46/1
f 37/48/1 38/49/1 40/160/1
f 38/49/1 39/51/1 40/160/1
f 40/160/1 26/46/1 37/48/1
f 5/52/7 40/161/7 39/53/7
f 6/55/8 26/162/8 40/56/8
f 43/60/9 44/63/9 46/61/9
f 44/63/9 45/65/9 46/61/9
f 46/61/9 47/163/9 48/62/9
f 51/66/6 46/164/6 45/67/6
f 52/69/9 53/73/9 51/70/9
f 53/73/9 50/165/9 51/70/9
f 51/70/9 54/166/9 55/71/9
f 56/72/9 50/165/9 53/73/9
f 58/75/9 59/77/9 56/72/9
f 60/76/9 61/79/9 59/77/9
f 60/76/9 62/167/9 63/78/9
f 64/168/9 63/78/9 65/80/9
f 63/78/9 62/167/9 65/80/9
f 67/169/9 68/83/9 66/81/9
f 68/83/9 69/82/9 66/81/9
f 64/168/9 65/80/9 69/82/9
f 68/83/9 67/169/9 71/84/9
f 68/86/2 72/170/2 73/87/2
f 69/89/8 74/171/8 72/90/8
f 64/92/7 75/172/7 74/93/7
f 74/95/9 75/99/9 76/98/9
f 77/96/9 78/102/9 72/97/9
f 74/95/9 76/98/9 77/96/9
f 80/101/9 73/104/9 72/97/9
f 81/103/9 82/105/9 73/104/9
f 48/62/9 47/163/9 82/105/9
f 83/106/4 82/173/4 47/107/4
f 55/71/9 54/166/9 83/109/9
f 70/85/9 71/84/9 84/110/9
f 70/111/3 73/174/3 82/112/3
f 54/114/5 47/175/5 46/115/5
f 86/117/9 87/176/9 88/118/9
f 94/129/1 95/177/1 92/178/1
f 92/178/1 93/127/1 94/129/1
f 95/130/11 92/179/11 90/131/11
f 90/135/9 97/180/9 98/133/9
f 98/133/9 99/181/9 89/134/9
f 89/136/3 93/182/3 96/137/3
f 91/140/1 101/183/1 102/141/1
f 85/143/11 91/184/11 101/144/11
f 88/146/10 101/185/10 102/147/10
f 87/149/3 102/186/3 100/150/3
