# Blender v2.90.1 OBJ File: ''
# www.blender.org
mtllib M12_Chaffee_1st color_parts.mtl
o M12_Chaffee_1st_color_parts
v -0.977500 1.407530 0.696007
v -0.665000 1.407530 0.696007
v -0.665000 1.333060 0.765718
v -0.977500 1.333060 0.765718
v -0.665000 1.582290 0.288938
v -0.977500 1.582290 0.288938
v -0.665000 1.435130 0.779276
v -0.665000 1.304730 0.866714
v -0.665000 1.167870 0.796097
v -0.665000 1.125430 0.676967
v -0.665000 1.171430 0.676967
v -0.665000 1.217990 0.716374
v -0.665000 1.254990 0.765718
v -0.665000 1.582290 0.434938
v -0.665000 1.538600 0.667473
v -0.395000 1.435130 0.779276
v -0.395000 1.304730 0.866714
v -0.395000 1.538600 0.667473
v 0.665000 1.582290 0.434938
v 0.665000 1.538600 0.667473
v 0.395000 1.538600 0.667473
v 0.342000 1.582290 0.085232
v 0.625774 1.582290 0.085232
v 0.665000 1.582290 0.288938
v -0.520000 1.582290 -0.464062
v 0.520000 1.582290 -0.464062
v 0.547401 1.582290 -0.321768
v 0.342000 1.582290 -0.321768
v 0.977500 1.582290 0.288938
v 0.772000 1.582290 0.085232
v 0.772000 1.582290 -0.321768
v 0.977500 1.582290 -0.464062
v 0.665000 1.407530 0.696007
v 0.977500 1.407530 0.696007
v 0.665000 1.304730 0.866714
v 0.665000 1.435130 0.779276
v 0.665000 1.333060 0.765718
v 0.665000 1.254990 0.765718
v 0.665000 1.217990 0.716374
v 0.665000 1.171430 0.676967
v 0.665000 1.125430 0.676967
v 0.665000 1.167870 0.796097
v 0.395000 1.304730 0.866714
v 0.395000 1.435130 0.779276
v 0.395000 1.167870 0.796097
v 0.977500 1.333060 0.765718
v 0.977500 1.254990 -0.738626
v 0.977500 1.217990 -0.738626
v 0.977500 1.217990 0.716374
v 0.977500 1.254990 0.765718
v 0.977500 1.254990 -1.040630
v 0.977500 1.398990 -1.040630
v -0.977500 1.254990 -0.738626
v -0.977500 1.254990 -1.040630
v -0.977500 1.398990 -1.040630
v -0.977500 1.540600 -0.595194
v -0.977500 1.552210 -0.558694
v -0.977500 1.582290 -0.464062
v -0.935000 1.552210 -0.558694
v -0.935000 1.540600 -0.595194
v 0.520000 1.505580 -0.705347
v -0.520000 1.505580 -0.705347
v -0.977500 1.217990 -0.738626
v -0.977500 1.254990 0.765718
v -0.977500 1.217990 0.716374
v 0.790000 1.217990 0.716374
v 0.790000 1.217990 -0.539012
v -0.790000 1.217990 -0.539012
v -0.790000 1.217990 0.716374
vt 26.181101 21.725401
vt 38.484299 17.709700
vt 38.484299 21.725401
vt -26.181101 14.122900
vt -38.484299 -3.318090
vt -26.181101 -3.318090
vt -34.122601 51.367298
vt -30.146400 49.409100
vt -30.146400 52.482899
vt 15.551200 23.659599
vt 26.181101 29.840700
vt 15.551200 29.840700
vt 15.551200 15.861000
vt 26.181101 21.858601
vt 15.551200 21.858601
vt -15.551200 -14.640700
vt 15.551200 -14.640700
vt 26.181101 -5.325600
vt 20.472401 18.270201
vt -13.464600 12.668000
vt -13.464600 -3.355580
vt -30.393700 -3.355580
vt -30.393700 12.668000
vt -38.484299 18.270201
vt 26.181101 -3.318090
vt 38.484299 14.122900
vt 26.181101 14.122900
vt 30.680099 56.500999
vt 27.401899 55.414398
vt 30.146400 52.482899
vt -15.551200 29.840700
vt -26.181101 23.659599
vt -15.551200 23.659599
vt -15.551200 21.858601
vt -26.181101 15.861000
vt -15.551200 15.861000
vt -15.551200 61.295399
vt -26.181101 55.232399
vt -15.551200 55.232399
vt -38.484299 21.725401
vt -26.181101 17.709700
vt -26.181101 21.725401
vt 27.401899 55.414398
vt 28.203699 47.952400
vt 30.146400 52.482899
vt -29.079800 49.409100
vt -40.969501 55.078300
vt -40.969501 49.409100
vt 38.484299 40.969501
vt -38.484299 29.079800
vt 38.484299 29.079800
vt 21.995800 61.110500
vt 18.270201 62.294899
vt 29.079800 49.409100
vt -38.484299 -22.356300
vt 38.484299 -22.356300
vt 20.472401 -8.505360
vt -38.484299 -3.954750
vt -36.811001 -2.446860
vt -38.484299 -2.446860
vt -38.484299 55.078300
vt 38.484299 49.409100
vt 38.484299 55.078300
vt 38.484299 18.270201
vt 26.181101 -11.375500
vt 38.484299 -11.375500
vt -30.146400 52.482899
vt -30.146400 49.409100
vt -28.203699 47.952400
vt 38.484299 49.409100
vt -38.484299 47.952400
vt 38.484299 47.952400
vt 38.484299 29.079800
vt -38.484299 29.079800
vt 31.102400 21.220900
vt -38.484299 53.760300
vt -38.484299 51.332100
vt -31.102400 51.332100
vt -26.181101 49.409100
vt -38.484299 52.482899
vt -38.484299 49.409100
vt 26.181101 53.760300
vt 26.181101 51.332100
vt 31.102400 51.332100
vt 38.484299 49.409100
vt 26.181101 52.482899
vt 26.181101 49.409100
vt 26.181101 17.709700
vt -38.484299 14.122900
vt -26.278400 60.574799
vt -30.680099 56.500999
vt -27.401899 55.414398
vt -31.342400 45.979301
vt -26.652201 44.308201
vt -26.652201 46.119202
vt -28.203699 47.952400
vt -17.123501 62.294899
vt -11.375500 62.294899
vt 26.181101 23.659599
vt 26.181101 15.861000
vt 26.181101 -14.640700
vt -26.181101 -5.325600
vt -26.181101 -14.640700
vt -24.636801 -3.355580
vt -26.181101 -11.375500
vt -26.181101 -17.123501
vt 26.181101 -17.123501
vt -20.472401 18.270201
vt -21.551201 12.668000
vt -38.484299 -11.375500
vt 38.484299 -3.318090
vt 31.342400 45.979301
vt 34.122601 51.367298
vt 30.146400 49.409100
vt 26.278400 60.574799
vt 17.123501 62.294899
vt 11.375500 62.294899
vt 26.652201 46.119202
vt 26.652201 44.308201
vt 28.203699 47.952400
vt -26.181101 29.840700
vt -26.181101 21.858601
vt -26.181101 61.295399
vt -38.484299 17.709700
vt 11.375500 62.294899
vt -18.270201 62.294899
vt -29.079800 47.952400
vt 30.146400 49.409100
vt -38.484299 40.969501
vt 40.969501 49.409100
vt 40.969501 55.078300
vt 23.432800 60.653599
vt -20.472401 1.462560
vt -38.484299 1.462560
vt -20.472401 -8.505360
vt -36.811001 -3.954750
vt 38.484299 1.462560
vt 20.472401 1.462560
vt -38.484299 49.409100
vt 29.079800 47.952400
vt -11.375500 62.294899
vt -27.401899 55.414398
vt -38.484299 49.409100
vt 31.102400 -28.203699
vt 38.484299 -28.203699
vt -38.484299 -28.203699
vt -31.102400 21.220900
vt -31.102400 -28.203699
vt -26.181101 51.332100
vt -26.181101 53.760300
vt -26.181101 52.482899
vt 38.484299 51.332100
vt 38.484299 53.760300
vt 38.484299 52.482899
vn 0.0000 -0.6834 -0.7300
vn 0.0000 0.9189 0.3945
vn 1.0000 -0.0000 0.0000
vn 0.0000 -0.5569 -0.8306
vn 0.0000 -0.7339 -0.6792
vn 0.0000 -0.9828 -0.1847
vn -0.0000 -1.0000 -0.0000
vn -1.0000 0.0000 0.0000
vn 0.0000 0.4585 -0.8887
vn -0.0000 -0.9530 0.3030
vn 0.0000 0.0000 -1.0000
vn 0.0000 0.8001 -0.5999
vn 0.0000 -0.9530 0.3029
usemtl M_2ndcolor
s 1
f 2/1/1 4/2/1 1/3/1
f 5/4/2 1/5/2 2/6/2
f 8/7/3 13/8/3 3/9/3
f 17/10/4 7/11/4 16/12/4
f 16/13/5 15/14/5 18/15/5
f 21/16/6 18/17/6 14/18/6
f 25/19/7 28/20/7 22/21/7
f 30/22/7 31/23/7 32/24/7
f 33/25/2 29/26/2 24/27/2
f 36/28/8 33/29/8 37/30/8
f 44/31/4 35/32/4 43/33/4
f 21/34/5 36/35/5 44/36/5
f 43/37/9 42/38/9 45/39/9
f 34/40/1 37/41/1 33/42/1
f 34/43/8 49/44/8 46/45/8
f 47/46/8 52/47/8 51/48/8
f 54/49/7 47/50/7 53/51/7
f 57/52/3 58/53/3 53/54/3
f 55/55/10 52/56/10 61/57/10
f 56/58/10 59/59/10 57/60/10
f 52/61/11 54/62/11 55/63/11
f 58/64/7 5/65/7 6/66/7
f 4/67/3 64/68/3 65/69/3
f 53/70/11 48/71/11 63/72/11
f 63/73/7 48/74/7 68/75/7
f 50/76/12 49/77/12 66/78/12
f 38/79/11 46/80/11 50/81/11
f 13/82/12 12/83/12 69/84/12
f 64/85/11 3/86/11 13/87/11
f 2/1/1 3/88/1 4/2/1
f 5/4/2 6/89/2 1/5/2
f 15/90/3 7/91/3 2/92/3
f 7/91/3 8/7/3 3/9/3
f 2/92/3 7/91/3 3/9/3
f 8/7/3 9/93/3 13/8/3
f 9/93/3 10/94/3 11/95/3
f 13/8/3 9/93/3 12/96/3
f 11/95/3 12/96/3 9/93/3
f 14/97/3 15/90/3 2/92/3
f 2/92/3 5/98/3 14/97/3
f 17/10/4 8/99/4 7/11/4
f 16/13/5 7/100/5 15/14/5
f 18/17/6 15/101/6 14/18/6
f 14/18/6 19/102/6 21/16/6
f 19/102/6 20/103/6 21/16/6
f 22/21/7 23/104/7 24/105/7
f 24/105/7 19/106/7 22/21/7
f 19/106/7 14/107/7 22/21/7
f 14/107/7 5/65/7 22/21/7
f 5/65/7 25/19/7 22/21/7
f 25/19/7 26/108/7 28/20/7
f 26/108/7 27/109/7 28/20/7
f 29/110/7 24/105/7 30/22/7
f 24/105/7 23/104/7 30/22/7
f 27/109/7 26/108/7 31/23/7
f 26/108/7 32/24/7 31/23/7
f 29/110/7 30/22/7 32/24/7
f 33/25/2 34/111/2 29/26/2
f 42/112/8 35/113/8 38/114/8
f 35/113/8 36/28/8 37/30/8
f 38/114/8 35/113/8 37/30/8
f 36/28/8 20/115/8 33/29/8
f 20/115/8 19/116/8 33/29/8
f 19/116/8 24/117/8 33/29/8
f 40/118/8 41/119/8 42/112/8
f 38/114/8 39/120/8 42/112/8
f 39/120/8 40/118/8 42/112/8
f 44/31/4 36/121/4 35/32/4
f 21/34/5 20/122/5 36/35/5
f 43/37/9 35/123/9 42/38/9
f 34/40/1 46/124/1 37/41/1
f 34/43/8 29/125/8 49/44/8
f 29/125/8 32/126/8 48/127/8
f 32/126/8 47/46/8 48/127/8
f 48/127/8 49/44/8 29/125/8
f 49/44/8 50/128/8 46/45/8
f 47/46/8 32/126/8 52/47/8
f 54/49/7 51/129/7 47/50/7
f 54/130/3 55/131/3 53/54/3
f 55/131/3 56/132/3 53/54/3
f 56/132/3 57/52/3 53/54/3
f 25/133/10 58/134/13 59/59/10
f 58/134/13 57/60/10 59/59/10
f 62/135/10 25/133/10 60/136/10
f 25/133/10 59/59/10 60/136/10
f 60/136/10 56/58/10 55/55/10
f 32/137/10 26/138/10 61/57/10
f 62/135/10 60/136/10 55/55/10
f 52/56/10 32/137/10 61/57/10
f 61/57/10 62/135/10 55/55/10
f 56/58/10 60/136/10 59/59/10
f 52/61/11 51/139/11 54/62/11
f 58/64/7 25/19/7 5/65/7
f 65/69/3 63/140/3 6/141/3
f 63/140/3 53/54/3 58/53/3
f 6/141/3 63/140/3 58/53/3
f 6/141/3 1/142/3 65/69/3
f 1/142/3 4/67/3 65/69/3
f 53/70/11 47/143/11 48/71/11
f 69/144/7 65/145/7 68/75/7
f 65/145/7 63/73/7 68/75/7
f 48/74/7 49/146/7 67/147/7
f 49/146/7 66/148/7 67/147/7
f 48/74/7 67/147/7 68/75/7
f 39/149/12 38/150/12 66/78/12
f 38/150/12 50/76/12 66/78/12
f 38/79/11 37/151/11 46/80/11
f 65/152/12 64/153/12 69/84/12
f 64/153/12 13/82/12 69/84/12
f 64/85/11 4/154/11 3/86/11
