# Blender v2.90.0 OBJ File: 'TERRAIN.blend'
# www.blender.org
o Plane
v 0.000000 0.000000 9.000000
v 9.000000 0.000000 9.000000
v 0.000000 0.225000 0.000000
v 9.000000 0.225000 0.000000
v 0.000000 0.000000 4.500000
v 9.000000 0.225000 4.500000
v 4.500000 0.000000 9.000000
v 4.500000 0.225000 0.000000
v 4.500000 0.225000 4.500000
v 9.000000 0.000000 9.000000
v 18.000000 0.000000 9.000000
v 9.000000 0.225000 0.000000
v 18.000000 0.000000 0.000000
v 9.000000 0.225000 4.500000
v 18.000000 0.000000 4.500000
v 13.500000 0.000000 9.000000
v 13.500000 0.225000 0.000000
v 13.500000 0.000000 4.500000
v 0.000000 -0.225000 18.000000
v 9.000000 -0.225000 18.000000
v 0.000000 0.000000 9.000000
v 9.000000 0.000000 9.000000
v 4.500000 -0.225000 18.000000
v 4.500000 0.000000 9.000000
v 0.000000 0.000000 13.500000
v 9.000000 0.000000 13.500000
v 4.500000 0.000000 13.500000
v 9.000000 -0.225000 18.000000
v 18.000000 0.450000 18.000000
v 9.000000 0.000000 9.000000
v 18.000000 0.000000 9.000000
v 13.500000 0.000000 18.000000
v 13.500000 0.000000 9.000000
v 9.000000 0.000000 13.500000
v 18.000000 0.000000 13.500000
v 13.500000 0.000000 13.500000
v -18.000000 0.000000 9.000000
v -9.000000 0.000000 9.000000
v -18.000000 0.000000 0.000000
v -9.000000 0.262500 0.000000
v -18.000000 -0.150000 4.500000
v -9.000000 0.000000 4.500000
v -13.500000 0.300000 9.000000
v -13.500000 0.000000 0.000000
v -13.500000 0.000000 4.500000
v -9.000000 0.000000 9.000000
v 0.000000 0.000000 9.000000
v -9.000000 0.262500 0.000000
v 0.000000 0.225000 0.000000
v -4.500000 0.000000 9.000000
v -4.500000 0.000000 0.000000
v -9.000000 0.000000 4.500000
v 0.000000 0.000000 4.500000
v -4.500000 0.000000 4.500000
v -18.000000 0.000000 18.000000
v -9.000000 0.000000 18.000000
v -18.000000 0.000000 9.000000
v -9.000000 0.000000 9.000000
v -18.000000 0.000000 13.500000
v -9.000000 0.000000 13.500000
v -13.500000 0.000000 18.000000
v -13.500000 0.300000 9.000000
v -13.500000 0.000000 13.500000
v -9.000000 0.000000 18.000000
v 0.000000 -0.225000 18.000000
v -9.000000 0.000000 9.000000
v 0.000000 0.000000 9.000000
v -4.500000 0.000000 18.000000
v -4.500000 0.000000 9.000000
v -9.000000 0.000000 13.500000
v 0.000000 0.000000 13.500000
v -4.500000 0.000000 13.500000
v 0.000000 0.375000 -9.000000
v 9.000000 0.225000 -9.000000
v 0.000000 0.000000 -18.000000
v 9.000000 0.000000 -18.000000
v 0.000000 0.000000 -13.500000
v 9.000000 0.225000 -13.500000
v 4.500000 0.225000 -9.000000
v 4.500000 0.075000 -18.000000
v 4.500000 0.000000 -13.500000
v 9.000000 0.225000 -9.000000
v 18.000000 0.000000 -9.000000
v 9.000000 0.000000 -18.000000
v 18.000000 0.300000 -18.000000
v 13.500000 0.000000 -9.000000
v 13.500000 0.000000 -18.000000
v 9.000000 0.225000 -13.500000
v 18.000000 0.000000 -13.500000
v 13.500000 0.000000 -13.500000
v 0.000000 0.225000 0.000000
v 9.000000 0.225000 0.000000
v 0.000000 0.375000 -9.000000
v 9.000000 0.225000 -9.000000
v 0.000000 0.225000 -4.500000
v 9.000000 0.225000 -4.500000
v 4.500000 0.225000 0.000000
v 4.500000 0.225000 -9.000000
v 4.500000 0.225000 -4.500000
v 9.000000 0.225000 0.000000
v 18.000000 0.000000 0.000000
v 9.000000 0.225000 -9.000000
v 18.000000 0.000000 -9.000000
v 9.000000 0.225000 -4.500000
v 18.000000 0.000000 -4.500000
v 13.500000 0.225000 0.000000
v 13.500000 0.000000 -9.000000
v 13.500000 0.225000 -4.500000
v -18.000000 -0.300000 -9.000000
v -9.000000 0.000000 -9.000000
v -18.000000 0.000000 -18.000000
v -9.000000 0.000000 -18.000000
v -18.000000 0.000000 -13.500000
v -9.000000 0.000000 -13.500000
v -13.500000 0.000000 -9.000000
v -13.500000 0.000000 -18.000000
v -13.500000 0.000000 -13.500000
v -9.000000 0.000000 -9.000000
v 0.000000 0.375000 -9.000000
v -9.000000 0.000000 -18.000000
v 0.000000 0.000000 -18.000000
v -9.000000 0.000000 -13.500000
v 0.000000 0.000000 -13.500000
v -4.500000 0.000000 -9.000000
v -4.500000 0.000000 -18.000000
v -4.500000 -0.150000 -13.500000
v -18.000000 0.000000 0.000000
v -9.000000 0.262500 0.000000
v -18.000000 -0.300000 -9.000000
v -9.000000 0.000000 -9.000000
v -18.000000 -0.300000 -4.500000
v -9.000000 0.000000 -4.500000
v -13.500000 0.000000 0.000000
v -13.500000 0.000000 -9.000000
v -13.500000 0.000000 -4.500000
v -9.000000 0.262500 0.000000
v 0.000000 0.225000 0.000000
v -9.000000 0.000000 -9.000000
v 0.000000 0.375000 -9.000000
v -9.000000 0.000000 -4.500000
v 0.000000 0.225000 -4.500000
v -4.500000 0.000000 0.000000
v -4.500000 0.000000 -9.000000
v -4.500000 0.000000 -4.500000
vt 1.000000 0.500000
vt 0.500000 1.000000
vt 0.500000 0.500000
vt 1.000000 0.000000
vt 0.500000 0.000000
vt 0.000000 0.000000
vt 0.000000 1.000000
vt 0.000000 0.500000
vt 1.000000 0.500000
vt 1.000000 1.000000
vt 0.500000 1.000000
vt 1.000000 0.000000
vt 0.500000 0.500000
vt 0.500000 0.000000
vt 0.000000 0.500000
vt 0.000000 1.000000
vt 0.000000 0.000000
vt 1.000000 0.500000
vt 0.500000 1.000000
vt 0.500000 0.500000
vt 0.000000 1.000000
vt 0.000000 0.500000
vt 0.500000 0.000000
vt 0.000000 0.000000
vt 1.000000 0.000000
vt 1.000000 0.500000
vt 0.500000 1.000000
vt 0.500000 0.500000
vt 0.000000 1.000000
vt 0.000000 0.500000
vt 0.000000 0.000000
vt 0.500000 0.000000
vt 1.000000 0.000000
vt 0.500000 0.500000
vt 1.000000 0.500000
vt 1.000000 1.000000
vt 0.500000 0.000000
vt 1.000000 0.000000
vt 0.000000 0.500000
vt 0.500000 1.000000
vt 0.000000 0.000000
vt 0.000000 1.000000
vt 1.000000 0.500000
vt 0.500000 1.000000
vt 0.500000 0.500000
vt 0.000000 1.000000
vt 0.500000 0.000000
vt 0.000000 0.500000
vt 0.000000 0.000000
vt 1.000000 0.000000
vt 1.000000 0.500000
vt 1.000000 1.000000
vt 0.500000 1.000000
vt 1.000000 0.000000
vt 0.500000 0.500000
vt 0.500000 0.000000
vt 0.000000 0.500000
vt 0.000000 0.000000
vt 0.000000 1.000000
vt 1.000000 0.500000
vt 0.500000 1.000000
vt 0.500000 0.500000
vt 0.000000 1.000000
vt 0.000000 0.500000
vt 0.500000 0.000000
vt 0.000000 0.000000
vt 1.000000 0.000000
vt 0.500000 0.500000
vt 1.000000 1.000000
vt 0.500000 1.000000
vt 0.500000 0.000000
vt 1.000000 0.000000
vt 1.000000 0.500000
vt 0.000000 0.500000
vt 0.000000 1.000000
vt 0.000000 0.000000
vt 0.500000 0.500000
vt 1.000000 0.500000
vt 1.000000 1.000000
vt 0.000000 0.500000
vt 0.500000 1.000000
vt 0.500000 0.000000
vt 1.000000 0.000000
vt 0.000000 1.000000
vt 0.000000 0.000000
vt 1.000000 0.500000
vt 0.500000 1.000000
vt 0.500000 0.500000
vt 1.000000 0.000000
vt 0.500000 0.000000
vt 0.000000 0.500000
vt 0.000000 0.000000
vt 0.000000 1.000000
vt 0.500000 0.500000
vt 1.000000 0.500000
vt 1.000000 1.000000
vt 1.000000 0.000000
vt 0.500000 0.000000
vt 0.000000 0.500000
vt 0.000000 0.000000
vt 0.500000 1.000000
vt 0.000000 1.000000
vt 1.000000 0.500000
vt 0.500000 1.000000
vt 0.500000 0.500000
vt 1.000000 0.000000
vt 0.500000 0.000000
vt 0.000000 0.000000
vt 0.000000 1.000000
vt 0.000000 0.500000
vt 1.000000 0.500000
vt 0.500000 1.000000
vt 0.500000 0.500000
vt 0.500000 0.000000
vt 1.000000 0.000000
vt 0.000000 0.500000
vt 0.000000 0.000000
vt 0.000000 1.000000
vt 1.000000 0.500000
vt 0.500000 1.000000
vt 0.500000 0.500000
vt 1.000000 0.000000
vt 0.500000 0.000000
vt 0.000000 0.500000
vt 0.000000 1.000000
vt 0.000000 0.000000
vt 1.000000 0.500000
vt 1.000000 1.000000
vt 0.500000 1.000000
vt 1.000000 0.000000
vt 0.500000 0.500000
vt 0.500000 0.000000
vt 0.000000 0.000000
vt 0.000000 1.000000
vt 0.000000 0.500000
vt 1.000000 1.000000
vt 1.000000 1.000000
vt 1.000000 1.000000
vt 1.000000 1.000000
vt 1.000000 1.000000
vt 1.000000 1.000000
vt 1.000000 1.000000
vt 1.000000 1.000000
vt 1.000000 1.000000
vn 0.0000 1.0000 0.0000
vn 0.0000 0.9988 0.0499
vn -0.0499 0.9988 0.0000
vn -0.0499 0.9975 0.0499
vn 0.0499 0.9988 0.0000
vn 0.0000 0.9950 -0.0995
vn -0.0995 0.9950 0.0000
vn 0.0000 0.9983 0.0582
vn 0.0665 0.9978 0.0000
vn -0.0332 0.9972 -0.0665
vn -0.0333 0.9994 0.0000
vn -0.0582 0.9983 0.0000
vn -0.0665 0.9972 -0.0332
vn 0.0000 0.9978 -0.0665
vn 0.0000 0.9994 0.0333
vn 0.0582 0.9983 0.0000
vn 0.0000 0.9978 0.0665
vn -0.0665 0.9978 0.0000
vn 0.0167 0.9997 0.0167
vn 0.0000 0.9988 -0.0499
vn 0.0332 0.9960 -0.0830
vn -0.0499 0.9975 -0.0499
vn 0.0333 0.9989 0.0333
vn 0.0499 0.9975 -0.0499
vn -0.0333 0.9989 0.0333
vn -0.0828 0.9931 -0.0828
vn -0.0333 0.9989 -0.0333
vn 0.0000 0.9983 -0.0582
vn -0.0830 0.9960 0.0332
vn 0.0499 0.9975 0.0499
vn -0.0167 0.9997 0.0167
vn 0.0333 0.9989 -0.0333
s off
f 6/1/1 8/2/1 9/3/1
f 2/4/2 9/3/2 7/5/2
f 1/6/2 7/5/2 9/3/2
f 9/3/1 8/2/1 3/7/1
f 5/8/3 1/6/3 9/3/3
f 5/8/4 9/3/4 3/7/4
f 15/9/5 13/10/5 17/11/5
f 11/12/1 18/13/1 16/14/1
f 16/14/5 18/13/5 14/15/5
f 14/15/1 17/11/1 12/16/1
f 18/13/2 15/9/2 17/11/2
f 10/17/2 16/14/2 14/15/2
f 26/18/1 24/19/1 27/20/1
f 27/20/1 21/21/1 25/22/1
f 23/23/2 25/22/2 19/24/2
f 20/25/2 27/20/2 23/23/2
f 35/26/1 33/27/1 36/28/1
f 36/28/1 30/29/1 34/30/1
f 28/31/3 32/32/3 36/28/3
f 29/33/6 35/26/6 36/28/6
f 32/32/7 29/33/7 36/28/7
f 34/30/2 28/31/2 36/28/2
f 45/34/8 42/35/8 40/36/8
f 43/37/9 38/38/9 42/35/9
f 43/37/10 45/34/10 41/39/10
f 41/39/11 45/34/11 44/40/11
f 44/40/12 45/34/12 40/36/12
f 37/41/13 43/37/13 41/39/13
f 45/34/14 43/37/14 42/35/14
f 39/42/15 41/39/15 44/40/15
f 53/43/1 51/44/1 54/45/1
f 54/45/16 51/44/16 48/46/16
f 50/47/1 52/48/1 46/49/1
f 47/50/1 54/45/1 50/47/1
f 52/48/8 54/45/8 48/46/8
f 60/51/9 58/52/9 62/53/9
f 56/54/1 63/55/1 61/56/1
f 61/56/1 59/57/1 55/58/1
f 59/57/17 63/55/17 62/53/17
f 63/55/17 60/51/17 62/53/17
f 57/59/18 59/57/18 62/53/18
f 71/60/1 69/61/1 72/62/1
f 72/62/1 66/63/1 70/64/1
f 68/65/1 70/64/1 64/66/1
f 65/67/2 71/60/2 72/62/2
f 68/65/5 65/67/5 72/62/5
f 81/68/19 76/69/19 80/70/19
f 79/71/1 74/72/1 78/73/1
f 79/71/20 81/68/20 77/74/20
f 81/68/1 75/75/1 77/74/1
f 73/76/21 79/71/21 77/74/21
f 81/68/22 79/71/22 78/73/22
f 90/77/17 89/78/17 85/79/17
f 88/80/5 90/77/5 87/81/5
f 86/82/5 90/77/5 88/80/5
f 83/83/1 90/77/1 86/82/1
f 84/84/20 88/80/20 87/81/20
f 87/81/18 90/77/18 85/79/18
f 82/85/5 86/82/5 88/80/5
f 96/86/1 98/87/1 99/88/1
f 92/89/1 99/88/1 97/90/1
f 97/90/1 95/91/1 91/92/1
f 95/91/23 98/87/23 93/93/23
f 108/94/5 105/95/5 103/96/5
f 101/97/5 108/94/5 106/98/5
f 106/98/1 104/99/1 100/100/1
f 108/94/24 107/101/24 102/102/24
f 104/99/1 108/94/1 102/102/1
f 107/101/20 108/94/20 103/96/20
f 114/103/1 116/104/1 117/105/1
f 110/106/1 117/105/1 115/107/1
f 109/108/18 115/107/18 117/105/18
f 117/105/1 111/109/1 113/110/1
f 113/110/17 109/108/17 117/105/17
f 123/111/25 125/112/25 126/113/25
f 124/114/26 119/115/26 123/111/26
f 124/114/1 122/116/1 118/117/1
f 122/116/1 125/112/1 120/118/1
f 126/113/27 124/114/27 123/111/27
f 132/119/1 134/120/1 135/121/1
f 128/122/28 132/119/28 135/121/28
f 133/123/18 135/121/18 131/124/18
f 135/121/18 129/125/18 131/124/18
f 133/123/12 128/122/12 135/121/12
f 127/126/14 133/123/14 131/124/14
f 141/127/29 139/128/29 143/129/29
f 137/130/3 144/131/3 142/132/3
f 136/133/16 142/132/16 144/131/16
f 144/131/1 138/134/1 140/135/1
f 140/135/28 136/133/28 144/131/28
f 144/131/3 141/127/3 143/129/3
f 6/1/1 4/136/1 8/2/1
f 2/4/2 6/1/2 9/3/2
f 11/12/1 15/9/1 18/13/1
f 14/15/30 18/13/30 17/11/30
f 26/18/1 22/137/1 24/19/1
f 27/20/1 24/19/1 21/21/1
f 23/23/2 27/20/2 25/22/2
f 20/25/2 26/18/2 27/20/2
f 35/26/1 31/138/1 33/27/1
f 36/28/1 33/27/1 30/29/1
f 53/43/4 49/139/4 51/44/4
f 50/47/1 54/45/1 52/48/1
f 47/50/1 53/43/1 54/45/1
f 56/54/1 60/51/1 63/55/1
f 61/56/1 63/55/1 59/57/1
f 71/60/1 67/140/1 69/61/1
f 72/62/1 69/61/1 66/63/1
f 68/65/1 72/62/1 70/64/1
f 81/68/22 78/73/22 76/69/22
f 81/68/31 80/70/31 75/75/31
f 83/83/1 89/78/1 90/77/1
f 96/86/1 94/141/1 98/87/1
f 92/89/1 96/86/1 99/88/1
f 97/90/1 99/88/1 95/91/1
f 95/91/1 99/88/1 98/87/1
f 101/97/5 105/95/5 108/94/5
f 106/98/1 108/94/1 104/99/1
f 114/103/1 112/142/1 116/104/1
f 110/106/1 114/103/1 117/105/1
f 117/105/1 116/104/1 111/109/1
f 123/111/1 121/143/1 125/112/1
f 124/114/32 126/113/32 122/116/32
f 122/116/23 126/113/23 125/112/23
f 132/119/1 130/144/1 134/120/1
f 135/121/18 134/120/18 129/125/18
f 137/130/3 141/127/3 144/131/3
f 144/131/1 143/129/1 138/134/1
