# Blender v2.90.1 OBJ File: ''
# www.blender.org
mtllib car wheels.mtl
o SketchUp_ID3
v -15.605634 1.000000 -3.387936
v -15.172621 0.750000 -3.387936
v -15.605634 0.500000 -3.387936
v -15.605634 0.500000 -3.387936
v -15.172621 0.750000 -3.387936
v -15.605634 1.000000 -3.387936
v -15.172621 0.750000 -3.387936
v -15.605634 1.000000 -3.387936
v -15.172621 0.750000 -2.987936
v -15.172621 0.750000 -2.987936
v -15.605634 1.000000 -3.387936
v -15.172621 0.750000 -3.387936
v -15.172621 0.250000 -3.387936
v -15.172621 0.250000 -3.387936
v -16.038647 0.750000 -3.387936
v -16.038647 0.750000 -3.387936
v -15.172621 0.750000 -3.387936
v -15.172621 0.750000 -2.987936
v -15.172621 0.250000 -3.387936
v -15.172621 0.250000 -3.387936
v -15.172621 0.750000 -2.987936
v -15.172621 0.750000 -3.387936
v -15.172621 0.750000 -2.987936
v -15.605634 1.000000 -3.387936
v -15.605634 1.000000 -2.987936
v -15.605634 1.000000 -2.987936
v -15.605634 1.000000 -3.387936
v -15.172621 0.750000 -2.987936
v -15.605634 0.000000 -3.387936
v -15.605634 0.000000 -3.387936
v -16.038647 0.250000 -3.387936
v -16.038647 0.250000 -3.387936
v -15.605634 1.000000 -3.387936
v -16.038647 0.750000 -3.387936
v -16.038647 0.750000 -2.987936
v -16.038647 0.750000 -2.987936
v -16.038647 0.750000 -3.387936
v -15.605634 1.000000 -3.387936
v -15.172621 0.250000 -3.387936
v -15.172621 0.750000 -2.987936
v -15.172621 0.250000 -2.987936
v -15.172621 0.250000 -2.987936
v -15.172621 0.750000 -2.987936
v -15.172621 0.250000 -3.387936
v -15.605634 1.000000 -3.387936
v -16.038647 0.750000 -2.987936
v -15.605634 1.000000 -2.987936
v -15.605634 1.000000 -2.987936
v -16.038647 0.750000 -2.987936
v -15.605634 1.000000 -3.387936
v -15.172621 0.250000 -3.387936
v -15.605634 0.000000 -2.987936
v -15.605634 0.000000 -3.387936
v -15.605634 0.000000 -3.387936
v -15.605634 0.000000 -2.987936
v -15.172621 0.250000 -3.387936
v -16.038647 0.250000 -3.387936
v -16.038647 0.750000 -2.987936
v -16.038647 0.750000 -3.387936
v -16.038647 0.750000 -3.387936
v -16.038647 0.750000 -2.987936
v -16.038647 0.250000 -3.387936
v -15.172621 0.250000 -2.987936
v -15.605634 0.000000 -2.987936
v -15.172621 0.250000 -3.387936
v -15.172621 0.250000 -3.387936
v -15.605634 0.000000 -2.987936
v -15.172621 0.250000 -2.987936
v -15.605634 0.000000 -2.987936
v -16.038647 0.250000 -3.387936
v -15.605634 0.000000 -3.387936
v -15.605634 0.000000 -3.387936
v -16.038647 0.250000 -3.387936
v -15.605634 0.000000 -2.987936
v -16.038647 0.250000 -2.987936
v -16.038647 0.250000 -2.987936
v -15.605634 0.000000 -2.987936
v -16.038647 0.250000 -2.987936
v -16.038647 0.250000 -3.387936
v -16.038647 0.250000 -3.387936
v -16.038647 0.250000 -2.987936
v -15.605634 0.000000 -2.987936
vn 0.0000 0.0000 -1.0000
vn 0.0000 0.0000 1.0000
vn 0.5000 0.8660 0.0000
vn -0.5000 -0.8660 0.0000
vn 1.0000 0.0000 0.0000
vn -1.0000 0.0000 0.0000
vn -0.5000 0.8660 0.0000
vn 0.5000 -0.8660 0.0000
usemtl _0136_Charcoal
s off
f 1//1 2//1 3//1
f 4//2 5//2 6//2
f 7//3 8//3 9//3
f 10//4 11//4 12//4
f 2//1 13//1 3//1
f 4//2 14//2 5//2
f 1//1 3//1 15//1
f 16//2 4//2 6//2
f 17//5 18//5 19//5
f 20//6 21//6 22//6
f 23//3 24//3 25//3
f 26//4 27//4 28//4
f 3//1 13//1 29//1
f 30//2 14//2 4//2
f 15//1 3//1 31//1
f 32//2 4//2 16//2
f 33//7 34//7 35//7
f 36//8 37//8 38//8
f 39//5 40//5 41//5
f 42//6 43//6 44//6
f 45//7 46//7 47//7
f 48//8 49//8 50//8
f 51//8 52//8 53//8
f 54//7 55//7 56//7
f 3//1 29//1 31//1
f 32//2 30//2 4//2
f 57//6 58//6 59//6
f 60//5 61//5 62//5
f 63//8 64//8 65//8
f 66//7 67//7 68//7
f 69//4 70//4 71//4
f 72//3 73//3 74//3
f 57//6 75//6 58//6
f 61//5 76//5 62//5
f 77//4 78//4 79//4
f 80//3 81//3 82//3
o SketchUp.001_ID11
v -11.896704 1.000000 -3.383135
v -11.896704 0.500000 -3.383135
v -12.329720 0.750000 -3.383135
v -12.329720 0.750000 -3.383135
v -11.896704 0.500000 -3.383135
v -11.896704 1.000000 -3.383135
v -12.329720 0.250000 -3.383135
v -12.329720 0.250000 -3.383135
v -11.896704 1.000000 -3.383135
v -12.329720 0.750000 -3.383135
v -12.329720 0.750000 -2.983136
v -12.329720 0.750000 -2.983136
v -12.329720 0.750000 -3.383135
v -11.896704 1.000000 -3.383135
v -11.463693 0.750000 -3.383135
v -11.463693 0.750000 -3.383135
v -11.896704 0.000000 -3.383135
v -11.896704 0.000000 -3.383135
v -12.329720 0.250000 -3.383135
v -12.329720 0.750000 -2.983136
v -12.329720 0.750000 -3.383135
v -12.329720 0.750000 -3.383135
v -12.329720 0.750000 -2.983136
v -12.329720 0.250000 -3.383135
v -11.896704 1.000000 -3.383135
v -12.329720 0.750000 -2.983136
v -11.896704 1.000000 -2.983136
v -11.896704 1.000000 -2.983136
v -12.329720 0.750000 -2.983136
v -11.896704 1.000000 -3.383135
v -11.463693 0.750000 -3.383135
v -11.896704 1.000000 -3.383135
v -11.463693 0.750000 -2.983136
v -11.463693 0.750000 -2.983136
v -11.896704 1.000000 -3.383135
v -11.463693 0.750000 -3.383135
v -11.463693 0.250000 -3.383135
v -11.463693 0.250000 -3.383135
v -11.896704 0.000000 -2.983136
v -12.329720 0.250000 -3.383135
v -11.896704 0.000000 -3.383135
v -11.896704 0.000000 -3.383135
v -12.329720 0.250000 -3.383135
v -11.896704 0.000000 -2.983136
v -12.329720 0.250000 -2.983136
v -12.329720 0.250000 -2.983136
v -11.463693 0.750000 -2.983136
v -11.896704 1.000000 -3.383135
v -11.896704 1.000000 -2.983136
v -11.896704 1.000000 -2.983136
v -11.896704 1.000000 -3.383135
v -11.463693 0.750000 -2.983136
v -11.463693 0.750000 -3.383135
v -11.463693 0.750000 -2.983136
v -11.463693 0.250000 -3.383135
v -11.463693 0.250000 -3.383135
v -11.463693 0.750000 -2.983136
v -11.463693 0.750000 -3.383135
v -11.463693 0.250000 -3.383135
v -11.896704 0.000000 -2.983136
v -11.896704 0.000000 -3.383135
v -11.896704 0.000000 -3.383135
v -11.896704 0.000000 -2.983136
v -11.463693 0.250000 -3.383135
v -11.896704 0.000000 -2.983136
v -12.329720 0.250000 -2.983136
v -12.329720 0.250000 -3.383135
v -12.329720 0.250000 -3.383135
v -12.329720 0.250000 -2.983136
v -11.896704 0.000000 -2.983136
v -11.463693 0.250000 -2.983136
v -11.463693 0.250000 -2.983136
v -11.463693 0.250000 -2.983136
v -11.463693 0.250000 -2.983136
vn 0.0000 0.0000 -1.0000
vn 0.0000 0.0000 1.0000
vn -0.5000 0.8660 0.0000
vn 0.5000 -0.8660 0.0000
vn -1.0000 0.0000 0.0000
vn 1.0000 0.0000 0.0000
vn 0.5000 0.8660 0.0000
vn -0.5000 -0.8660 0.0000
usemtl _0136_Charcoal
s off
f 83//9 84//9 85//9
f 86//10 87//10 88//10
f 85//9 84//9 89//9
f 90//10 87//10 86//10
f 91//11 92//11 93//11
f 94//12 95//12 96//12
f 83//9 97//9 84//9
f 87//10 98//10 88//10
f 84//9 99//9 89//9
f 90//10 100//10 87//10
f 101//13 102//13 103//13
f 104//14 105//14 106//14
f 107//11 108//11 109//11
f 110//12 111//12 112//12
f 113//15 114//15 115//15
f 116//16 117//16 118//16
f 97//9 119//9 84//9
f 87//10 120//10 98//10
f 121//16 122//16 123//16
f 124//15 125//15 126//15
f 84//9 119//9 99//9
f 100//10 120//10 87//10
f 101//13 127//13 102//13
f 105//14 128//14 106//14
f 129//15 130//15 131//15
f 132//16 133//16 134//16
f 135//14 136//14 137//14
f 138//13 139//13 140//13
f 141//12 142//12 143//12
f 144//11 145//11 146//11
f 147//16 148//16 149//16
f 150//15 151//15 152//15
f 137//14 136//14 153//14
f 154//13 139//13 138//13
f 155//12 142//12 141//12
f 146//11 145//11 156//11
o SketchUp.002_ID17
v -11.463693 0.750000 -1.080936
v -11.463693 0.250000 -0.680936
v -11.463693 0.250000 -1.080936
v -11.463693 0.250000 -1.080936
v -11.463693 0.250000 -0.680936
v -11.463693 0.750000 -1.080936
v -11.463693 0.750000 -0.680936
v -11.463693 0.750000 -0.680936
v -11.463693 0.250000 -0.680936
v -11.896704 0.000000 -1.080936
v -11.463693 0.250000 -1.080936
v -11.463693 0.250000 -1.080936
v -11.896704 0.000000 -1.080936
v -11.463693 0.250000 -0.680936
v -11.463693 0.750000 -0.680936
v -11.896704 0.500000 -0.680936
v -11.463693 0.250000 -0.680936
v -11.463693 0.250000 -0.680936
v -11.896704 0.500000 -0.680936
v -11.463693 0.750000 -0.680936
v -11.463693 0.750000 -1.080936
v -11.896704 1.000000 -0.680936
v -11.463693 0.750000 -0.680936
v -11.463693 0.750000 -0.680936
v -11.896704 1.000000 -0.680936
v -11.463693 0.750000 -1.080936
v -11.896704 0.000000 -0.680936
v -11.896704 0.000000 -0.680936
v -11.896704 1.000000 -0.680936
v -11.896704 1.000000 -0.680936
v -11.896704 0.000000 -0.680936
v -11.896704 0.000000 -0.680936
v -11.463693 0.750000 -1.080936
v -11.896704 1.000000 -1.080936
v -11.896704 1.000000 -0.680936
v -11.896704 1.000000 -0.680936
v -11.896704 1.000000 -1.080936
v -11.463693 0.750000 -1.080936
v -11.896704 0.000000 -0.680936
v -12.329720 0.250000 -0.680936
v -11.896704 0.000000 -1.080936
v -11.896704 0.000000 -1.080936
v -12.329720 0.250000 -0.680936
v -11.896704 0.000000 -0.680936
v -12.329720 0.750000 -0.680936
v -12.329720 0.750000 -0.680936
v -12.329720 0.250000 -0.680936
v -12.329720 0.250000 -0.680936
v -11.896704 1.000000 -1.080936
v -12.329720 0.750000 -1.080936
v -11.896704 1.000000 -0.680936
v -11.896704 1.000000 -0.680936
v -12.329720 0.750000 -1.080936
v -11.896704 1.000000 -1.080936
v -11.896704 0.000000 -1.080936
v -12.329720 0.250000 -0.680936
v -12.329720 0.250000 -1.080936
v -12.329720 0.250000 -1.080936
v -12.329720 0.250000 -0.680936
v -11.896704 0.000000 -1.080936
v -11.896704 1.000000 -0.680936
v -12.329720 0.750000 -1.080936
v -12.329720 0.750000 -0.680936
v -12.329720 0.750000 -0.680936
v -12.329720 0.750000 -1.080936
v -11.896704 1.000000 -0.680936
v -12.329720 0.250000 -1.080936
v -12.329720 0.250000 -0.680936
v -12.329720 0.750000 -1.080936
v -12.329720 0.750000 -1.080936
v -12.329720 0.250000 -0.680936
v -12.329720 0.250000 -1.080936
v -12.329720 0.750000 -0.680936
v -12.329720 0.750000 -0.680936
vn 1.0000 0.0000 0.0000
vn -1.0000 0.0000 0.0000
vn 0.5000 -0.8660 0.0000
vn -0.5000 0.8660 0.0000
vn 0.0000 0.0000 1.0000
vn 0.0000 0.0000 -1.0000
vn 0.5000 0.8660 0.0000
vn -0.5000 -0.8660 0.0000
usemtl _0136_Charcoal
s off
f 157//17 158//17 159//17
f 160//18 161//18 162//18
f 157//17 163//17 158//17
f 161//18 164//18 162//18
f 165//19 166//19 167//19
f 168//20 169//20 170//20
f 171//21 172//21 173//21
f 174//22 175//22 176//22
f 177//23 178//23 179//23
f 180//24 181//24 182//24
f 165//19 183//19 166//19
f 169//20 184//20 170//20
f 185//21 172//21 171//21
f 176//22 175//22 186//22
f 172//21 187//21 173//21
f 174//22 188//22 175//22
f 189//23 190//23 191//23
f 192//24 193//24 194//24
f 195//24 196//24 197//24
f 198//23 199//23 200//23
f 185//21 201//21 172//21
f 175//22 202//22 186//22
f 172//21 203//21 187//21
f 188//22 204//22 175//22
f 205//20 206//20 207//20
f 208//19 209//19 210//19
f 211//24 212//24 213//24
f 214//23 215//23 216//23
f 201//21 203//21 172//21
f 175//22 204//22 202//22
f 217//20 218//20 219//20
f 220//19 221//19 222//19
f 223//18 224//18 225//18
f 226//17 227//17 228//17
f 225//18 224//18 229//18
f 230//17 227//17 226//17
o SketchUp.003_ID23
v -16.038647 0.750000 -0.676136
v -16.038647 0.250000 -0.676136
v -15.605634 0.500000 -0.676136
v -15.605634 0.500000 -0.676136
v -16.038647 0.250000 -0.676136
v -16.038647 0.750000 -0.676136
v -15.605634 0.000000 -0.676136
v -15.605634 0.000000 -0.676136
v -15.605634 1.000000 -0.676136
v -15.605634 1.000000 -0.676136
v -16.038647 0.750000 -1.076136
v -16.038647 0.250000 -0.676136
v -16.038647 0.750000 -0.676136
v -16.038647 0.750000 -0.676136
v -16.038647 0.250000 -0.676136
v -16.038647 0.750000 -1.076136
v -15.605634 0.000000 -0.676136
v -16.038647 0.250000 -0.676136
v -15.605634 0.000000 -1.076136
v -15.605634 0.000000 -1.076136
v -16.038647 0.250000 -0.676136
v -15.605634 0.000000 -0.676136
v -15.172621 0.250000 -0.676136
v -15.172621 0.250000 -0.676136
v -15.172621 0.750000 -0.676136
v -15.172621 0.750000 -0.676136
v -15.605634 1.000000 -0.676136
v -16.038647 0.750000 -1.076136
v -16.038647 0.750000 -0.676136
v -16.038647 0.750000 -0.676136
v -16.038647 0.750000 -1.076136
v -15.605634 1.000000 -0.676136
v -16.038647 0.250000 -1.076136
v -16.038647 0.250000 -1.076136
v -15.605634 0.000000 -1.076136
v -16.038647 0.250000 -0.676136
v -16.038647 0.250000 -1.076136
v -16.038647 0.250000 -1.076136
v -16.038647 0.250000 -0.676136
v -15.605634 0.000000 -1.076136
v -15.172621 0.250000 -0.676136
v -15.605634 0.000000 -0.676136
v -15.605634 0.000000 -1.076136
v -15.605634 0.000000 -1.076136
v -15.605634 0.000000 -0.676136
v -15.172621 0.250000 -0.676136
v -15.172621 0.750000 -1.076136
v -15.605634 1.000000 -0.676136
v -15.172621 0.750000 -0.676136
v -15.172621 0.750000 -0.676136
v -15.605634 1.000000 -0.676136
v -15.172621 0.750000 -1.076136
v -15.605634 1.000000 -1.076136
v -16.038647 0.750000 -1.076136
v -15.605634 1.000000 -0.676136
v -15.605634 1.000000 -0.676136
v -16.038647 0.750000 -1.076136
v -15.605634 1.000000 -1.076136
v -15.172621 0.250000 -0.676136
v -15.605634 0.000000 -1.076136
v -15.172621 0.250000 -1.076136
v -15.172621 0.250000 -1.076136
v -15.605634 0.000000 -1.076136
v -15.172621 0.250000 -0.676136
v -15.172621 0.750000 -1.076136
v -15.172621 0.750000 -0.676136
v -15.172621 0.250000 -0.676136
v -15.172621 0.250000 -0.676136
v -15.172621 0.750000 -0.676136
v -15.172621 0.750000 -1.076136
v -15.172621 0.750000 -1.076136
v -15.605634 1.000000 -1.076136
v -15.605634 1.000000 -0.676136
v -15.605634 1.000000 -0.676136
v -15.605634 1.000000 -1.076136
v -15.172621 0.750000 -1.076136
v -15.172621 0.750000 -1.076136
v -15.172621 0.250000 -0.676136
v -15.172621 0.250000 -1.076136
v -15.172621 0.250000 -1.076136
v -15.172621 0.250000 -0.676136
v -15.172621 0.750000 -1.076136
vn 0.0000 0.0000 1.0000
vn 0.0000 0.0000 -1.0000
vn -1.0000 0.0000 0.0000
vn 1.0000 0.0000 0.0000
vn -0.5000 -0.8660 0.0000
vn 0.5000 0.8660 0.0000
vn -0.5000 0.8660 0.0000
vn 0.5000 -0.8660 0.0000
usemtl _0136_Charcoal
s off
f 231//25 232//25 233//25
f 234//26 235//26 236//26
f 233//25 232//25 237//25
f 238//26 235//26 234//26
f 239//25 231//25 233//25
f 234//26 236//26 240//26
f 241//27 242//27 243//27
f 244//28 245//28 246//28
f 247//29 248//29 249//29
f 250//30 251//30 252//30
f 233//25 237//25 253//25
f 254//26 238//26 234//26
f 239//25 233//25 255//25
f 256//26 234//26 240//26
f 257//31 258//31 259//31
f 260//32 261//32 262//32
f 263//27 242//27 241//27
f 246//28 245//28 264//28
f 265//29 266//29 267//29
f 268//30 269//30 270//30
f 271//32 272//32 273//32
f 274//31 275//31 276//31
f 255//25 233//25 253//25
f 254//26 234//26 256//26
f 277//30 278//30 279//30
f 280//29 281//29 282//29
f 283//31 284//31 285//31
f 286//32 287//32 288//32
f 289//32 290//32 291//32
f 292//31 293//31 294//31
f 295//28 296//28 297//28
f 298//27 299//27 300//27
f 301//30 302//30 303//30
f 304//29 305//29 306//29
f 307//28 308//28 309//28
f 310//27 311//27 312//27
