# Blender v2.90.1 OBJ File: ''
# www.blender.org
mtllib car light b.mtl
o SketchUp_ID3
v -10.948071 1.500000 -3.209536
v -10.948071 1.500000 -2.909537
v -10.948071 1.100000 -3.209536
v -10.948071 1.100000 -3.209536
v -10.948071 1.500000 -2.909537
v -10.948071 1.500000 -3.209536
v -10.948071 1.100000 -2.909537
v -10.948071 1.100000 -2.909537
vn 1.0000 0.0000 0.0000
vn -1.0000 0.0000 0.0000
usemtl lightB2
s off
f 1//1 2//1 3//1
f 4//2 5//2 6//2
f 3//1 2//1 7//1
f 8//2 5//2 4//2
o SketchUp.001_ID11
v -10.948071 1.100000 -1.151136
v -10.948071 1.500000 -0.851136
v -10.948071 1.100000 -0.851136
v -10.948071 1.100000 -0.851136
v -10.948071 1.500000 -0.851136
v -10.948071 1.100000 -1.151136
v -10.948071 1.500000 -1.151136
v -10.948071 1.500000 -1.151136
vn 1.0000 0.0000 0.0000
vn -1.0000 0.0000 0.0000
usemtl lightB2
s off
f 9//3 10//3 11//3
f 12//4 13//4 14//4
f 15//3 10//3 9//3
f 14//4 13//4 16//4
