# Blender v2.90.1 OBJ File: ''
# www.blender.org
mtllib car under part.mtl
o SketchUp_ID3
v -16.159887 0.500000 -3.309536
v -16.698889 0.500000 -3.009537
v -16.858072 0.500000 -3.159536
v -16.858072 0.500000 -3.159536
v -16.698889 0.500000 -3.009537
v -16.159887 0.500000 -3.309536
v -16.159887 0.500000 -2.909537
v -16.159887 0.500000 -2.909537
v -16.858072 0.500000 -3.009537
v -16.858072 0.500000 -3.009537
v -16.858072 0.500000 -3.309536
v -16.858072 0.500000 -3.309536
v -16.159887 0.500000 -1.151136
v -16.159887 0.500000 -1.151136
v -15.051377 0.500000 -1.151136
v -16.159887 0.500000 -1.151136
v -16.159887 0.500000 -2.909537
v -16.159887 0.500000 -2.909537
v -16.159887 0.500000 -1.151136
v -15.051377 0.500000 -1.151136
v -16.698889 0.500000 -1.051136
v -16.698889 0.500000 -1.051136
v -15.051377 0.500000 -1.151136
v -16.159887 0.500000 -2.909537
v -15.051377 0.500000 -2.909537
v -15.051377 0.500000 -2.909537
v -16.159887 0.500000 -2.909537
v -15.051377 0.500000 -1.151136
v -16.159887 0.500000 -0.751136
v -16.159887 0.500000 -0.751136
v -12.453608 0.500000 -2.909537
v -15.051377 0.500000 -1.151136
v -15.051377 0.500000 -2.909537
v -15.051377 0.500000 -2.909537
v -15.051377 0.500000 -1.151136
v -12.453608 0.500000 -2.909537
v -16.858072 0.500000 -0.901136
v -16.858072 0.500000 -0.901136
v -12.453608 0.500000 -2.909537
v -15.051377 0.500000 -2.909537
v -14.353193 0.500000 -3.309536
v -14.353193 0.500000 -3.309536
v -15.051377 0.500000 -2.909537
v -12.453608 0.500000 -2.909537
v -12.453608 0.500000 -1.151136
v -15.051377 0.500000 -1.151136
v -12.453608 0.500000 -2.909537
v -12.453608 0.500000 -2.909537
v -15.051377 0.500000 -1.151136
v -12.453608 0.500000 -1.151136
v -16.858072 0.500000 -0.751136
v -16.858072 0.500000 -0.751136
v -16.858072 0.500000 -1.051136
v -16.858072 0.500000 -1.051136
v -14.353193 0.500000 -3.309536
v -15.051377 0.500000 -2.909537
v -15.051377 0.500000 -3.309536
v -15.051377 0.500000 -3.309536
v -15.051377 0.500000 -2.909537
v -14.353193 0.500000 -3.309536
v -12.453608 0.500000 -2.909537
v -14.353193 0.500000 -3.309536
v -12.850632 0.500000 -3.309536
v -12.850632 0.500000 -3.309536
v -14.353193 0.500000 -3.309536
v -12.453608 0.500000 -2.909537
v -12.453608 0.500000 -1.151136
v -14.353193 0.500000 -0.751136
v -15.051377 0.500000 -1.151136
v -15.051377 0.500000 -1.151136
v -14.353193 0.500000 -0.751136
v -12.453608 0.500000 -1.151136
v -11.345095 0.500000 -1.151136
v -12.453608 0.500000 -1.151136
v -12.453608 0.500000 -1.151136
v -11.345095 0.500000 -1.151136
v -12.453608 0.500000 -3.309536
v -12.453608 0.500000 -3.309536
v -12.850632 0.500000 -0.751136
v -14.353193 0.500000 -0.751136
v -14.353193 0.500000 -0.751136
v -12.850632 0.500000 -0.751136
v -14.353193 0.500000 -0.751136
v -15.051377 0.500000 -0.751136
v -15.051377 0.500000 -1.151136
v -15.051377 0.500000 -1.151136
v -15.051377 0.500000 -0.751136
v -14.353193 0.500000 -0.751136
v -11.345095 0.500000 -2.909537
v -11.345095 0.500000 -2.909537
v -12.453608 0.500000 -0.751136
v -12.453608 0.500000 -0.751136
v -10.948071 0.500000 -3.309536
v -11.345095 0.500000 -1.151136
v -11.345095 0.500000 -2.909537
v -11.345095 0.500000 -2.909537
v -11.345095 0.500000 -1.151136
v -10.948071 0.500000 -3.309536
v -10.948071 0.500000 -3.309536
v -11.345095 0.500000 -2.909537
v -11.345095 0.500000 -3.309536
v -11.345095 0.500000 -3.309536
v -11.345095 0.500000 -2.909537
v -10.948071 0.500000 -3.309536
v -10.948071 0.500000 -0.751136
v -11.345095 0.500000 -1.151136
v -10.948071 0.500000 -3.309536
v -10.948071 0.500000 -3.309536
v -11.345095 0.500000 -1.151136
v -10.948071 0.500000 -0.751136
v -10.948071 0.500000 -0.751136
v -11.345095 0.500000 -0.751136
v -11.345095 0.500000 -1.151136
v -11.345095 0.500000 -1.151136
v -11.345095 0.500000 -0.751136
v -10.948071 0.500000 -0.751136
vn 0.0000 -1.0000 0.0000
vn 0.0000 1.0000 0.0000
usemtl _0135_DarkGray
s off
f 1//1 2//1 3//1
f 4//2 5//2 6//2
f 7//1 2//1 1//1
f 6//2 5//2 8//2
f 2//1 9//1 3//1
f 4//2 10//2 5//2
f 1//1 3//1 11//1
f 12//2 4//2 6//2
f 13//1 2//1 7//1
f 8//2 5//2 14//2
f 15//1 16//1 17//1
f 18//2 19//2 20//2
f 13//1 21//1 2//1
f 5//2 22//2 14//2
f 23//1 24//1 25//1
f 26//2 27//2 28//2
f 29//1 21//1 13//1
f 14//2 22//2 30//2
f 31//1 32//1 33//1
f 34//2 35//2 36//2
f 29//1 37//1 21//1
f 22//2 38//2 30//2
f 39//1 40//1 41//1
f 42//2 43//2 44//2
f 45//1 46//1 47//1
f 48//2 49//2 50//2
f 29//1 51//1 37//1
f 38//2 52//2 30//2
f 21//1 37//1 53//1
f 54//2 38//2 22//2
f 55//1 56//1 57//1
f 58//2 59//2 60//2
f 61//1 62//1 63//1
f 64//2 65//2 66//2
f 67//1 68//1 69//1
f 70//2 71//2 72//2
f 73//1 74//1 61//1
f 66//2 75//2 76//2
f 61//1 63//1 77//1
f 78//2 64//2 66//2
f 74//1 79//1 80//1
f 81//2 82//2 75//2
f 83//1 84//1 85//1
f 86//2 87//2 88//2
f 73//1 61//1 89//1
f 90//2 66//2 76//2
f 91//1 79//1 74//1
f 75//2 82//2 92//2
f 93//1 94//1 95//1
f 96//2 97//2 98//2
f 99//1 100//1 101//1
f 102//2 103//2 104//2
f 105//1 106//1 107//1
f 108//2 109//2 110//2
f 111//1 112//1 113//1
f 114//2 115//2 116//2
o SketchUp.001_ID11
v -16.698889 0.580000 -2.929537
v -16.698889 1.170000 -1.131136
v -16.698889 1.170000 -2.929537
v -16.698889 1.170000 -2.929537
v -16.698889 1.170000 -1.131136
v -16.698889 0.580000 -2.929537
v -16.698889 0.580000 -1.131136
v -16.698889 0.580000 -1.131136
vn -1.0000 0.0000 0.0000
vn 1.0000 0.0000 0.0000
usemtl _0135_DarkGray
s off
f 117//3 118//3 119//3
f 120//4 121//4 122//4
f 117//3 123//3 118//3
f 121//4 124//4 122//4
o SketchUp.002_ID17
v -16.698889 0.500000 -1.051136
v -16.698889 0.580000 -2.929537
l 126 125
