# Blender v2.90.1 OBJ File: ''
# www.blender.org
mtllib dirt.mtl
o group_0_ID4
v 0.000000 0.000000 -23.000004
v -9.000006 0.000000 -15.815002
v -9.534006 0.000000 -24.070992
v -9.534006 0.000000 -24.070992
v -9.000006 0.000000 -15.815002
v 0.000000 0.000000 -23.000004
v 0.000000 0.000000 -14.999992
v 0.000000 0.000000 -14.999992
v -9.000006 0.000000 -13.499996
v -9.000006 0.000000 -13.499996
v 9.000006 0.000000 -15.815002
v 9.000006 0.000000 -15.815002
v 0.000000 0.000000 -13.499996
v 0.000000 0.000000 -13.499996
v -18.500004 0.000000 -15.458004
v -18.500004 0.000000 -15.458004
v 9.000006 0.000000 -13.499996
v 9.000006 0.000000 -13.499996
v 9.514994 0.000000 -24.070992
v 9.514994 0.000000 -24.070992
v -18.000006 0.000000 -13.499996
v -18.000006 0.000000 -13.499996
v 18.499987 0.000000 -15.458004
v 18.499987 0.000000 -15.458004
v -18.500004 0.000000 -13.499996
v -18.500004 0.000000 -13.499996
v 17.999990 0.000000 -13.499996
v 17.999990 0.000000 -13.499996
v -19.239006 0.000000 -14.999992
v -18.500004 0.000000 -13.499996
v -19.619007 0.000000 -13.499996
v -18.500004 0.000000 -15.458004
v -18.500004 0.000000 -15.458004
v -19.239006 0.000000 -14.999992
v -18.500004 0.000000 -13.499996
v -19.619007 0.000000 -13.499996
v 18.499987 0.000000 -13.499996
v 18.499987 0.000000 -13.499996
v -18.500004 0.000000 -9.000008
v -19.619007 0.000000 -13.499996
v -19.619007 0.000000 -13.499996
v -18.500004 0.000000 -9.000008
v 19.239004 0.000000 -14.999992
v 18.499987 0.000000 -13.499996
v 18.499987 0.000000 -15.458004
v 19.618986 0.000000 -13.499996
v 19.618986 0.000000 -13.499996
v 19.239004 0.000000 -14.999992
v 18.499987 0.000000 -13.499996
v 18.499987 0.000000 -15.458004
v -20.383007 0.000000 -9.000008
v -20.383007 0.000000 -9.000008
v 19.618986 0.000000 -13.499996
v 18.499987 0.000000 -9.000008
v 18.499987 0.000000 -9.000008
v 19.618986 0.000000 -13.499996
v -18.500004 0.000000 -4.500013
v -18.500004 0.000000 -4.500013
v 20.382994 0.000000 -9.000008
v 20.382994 0.000000 -9.000008
v -20.000008 0.000000 -4.500013
v -20.000008 0.000000 -4.500013
v 18.499987 0.000000 -4.500013
v 18.499987 0.000000 -4.500013
v -18.500004 0.000000 0.000000
v -18.500004 0.000000 0.000000
v 19.999987 0.000000 -4.500013
v 19.999987 0.000000 -4.500013
v -20.390007 0.000000 0.000000
v -20.390007 0.000000 0.000000
v 18.499987 0.000000 0.000000
v 18.499987 0.000000 0.000000
v -18.500004 0.000000 4.499998
v -18.500004 0.000000 4.499998
v 20.390001 0.000000 0.000000
v 20.390001 0.000000 0.000000
v -20.000008 0.000000 4.499998
v -20.000008 0.000000 4.499998
v 18.499987 0.000000 4.499998
v 18.499987 0.000000 4.499998
v -18.500004 0.000000 8.999999
v -18.500004 0.000000 8.999999
v 19.999987 0.000000 4.499998
v 19.999987 0.000000 4.499998
v -20.595007 0.000000 8.999999
v -20.595007 0.000000 8.999999
v 18.499987 0.000000 8.999999
v 18.499987 0.000000 8.999999
v -18.500004 0.000000 13.499997
v -18.500004 0.000000 13.499997
v 20.595007 0.000000 8.999999
v 20.595007 0.000000 8.999999
v -20.000008 0.000000 13.499997
v -20.000008 0.000000 13.499997
v 18.499987 0.000000 13.499997
v 18.499987 0.000000 13.499997
v -19.422009 0.000000 14.377095
v -19.422009 0.000000 14.377095
v 19.999987 0.000000 13.499997
v 19.999987 0.000000 13.499997
v -18.500004 0.000000 15.036095
v -18.500004 0.000000 15.036095
v 19.421984 0.000000 14.377095
v 19.421984 0.000000 14.377095
v -18.000006 0.000000 13.499997
v -18.000006 0.000000 13.499997
v 18.499987 0.000000 15.036095
v 18.499987 0.000000 15.036095
v -9.000006 0.000000 13.499997
v -9.000006 0.000000 13.499997
v 17.999990 0.000000 13.499997
v 17.999990 0.000000 13.499997
v -9.000006 0.000000 15.802095
v -9.000006 0.000000 15.802095
v 9.000006 0.000000 13.499997
v 9.000006 0.000000 13.499997
v 0.000000 0.000000 15.036095
v 0.000000 0.000000 15.036095
v 9.000006 0.000000 15.802095
v 9.000006 0.000000 15.802095
v -9.358006 0.000000 23.842094
v -9.358006 0.000000 23.842094
v 0.000000 0.000000 13.499997
v 0.000000 0.000000 13.499997
v 0.000000 0.000000 23.036095
v 0.000000 0.000000 23.036095
v 9.473997 0.000000 23.842094
v 9.473997 0.000000 23.842094
vn 0.0000 -1.0000 0.0000
vn 0.0000 1.0000 0.0000
usemtl _0045_Goldenrod
s off
f 1//1 2//1 3//1
f 4//2 5//2 6//2
f 7//1 2//1 1//1
f 6//2 5//2 8//2
f 7//1 9//1 2//1
f 5//2 10//2 8//2
f 11//1 7//1 1//1
f 6//2 8//2 12//2
f 13//1 9//1 7//1
f 8//2 10//2 14//2
f 9//1 15//1 2//1
f 5//2 16//2 10//2
f 17//1 7//1 11//1
f 12//2 8//2 18//2
f 19//1 11//1 1//1
f 6//2 12//2 20//2
f 17//1 13//1 7//1
f 8//2 14//2 18//2
f 9//1 21//1 15//1
f 16//2 22//2 10//2
f 23//1 17//1 11//1
f 12//2 18//2 24//2
f 21//1 25//1 15//1
f 16//2 26//2 22//2
f 23//1 27//1 17//1
f 18//2 28//2 24//2
f 29//1 30//1 31//1
f 30//1 29//1 32//1
f 33//2 34//2 35//2
f 36//2 35//2 34//2
f 37//1 27//1 23//1
f 24//2 28//2 38//2
f 39//1 40//1 25//1
f 26//2 41//2 42//2
f 43//1 44//1 45//1
f 44//1 43//1 46//1
f 47//2 48//2 49//2
f 50//2 49//2 48//2
f 39//1 51//1 40//1
f 41//2 52//2 42//2
f 53//1 54//1 37//1
f 38//2 55//2 56//2
f 57//1 51//1 39//1
f 42//2 52//2 58//2
f 59//1 54//1 53//1
f 56//2 55//2 60//2
f 57//1 61//1 51//1
f 52//2 62//2 58//2
f 59//1 63//1 54//1
f 55//2 64//2 60//2
f 65//1 61//1 57//1
f 58//2 62//2 66//2
f 59//1 67//1 63//1
f 64//2 68//2 60//2
f 65//1 69//1 61//1
f 62//2 70//2 66//2
f 67//1 71//1 63//1
f 64//2 72//2 68//2
f 73//1 69//1 65//1
f 66//2 70//2 74//2
f 75//1 71//1 67//1
f 68//2 72//2 76//2
f 73//1 77//1 69//1
f 70//2 78//2 74//2
f 75//1 79//1 71//1
f 72//2 80//2 76//2
f 81//1 77//1 73//1
f 74//2 78//2 82//2
f 75//1 83//1 79//1
f 80//2 84//2 76//2
f 81//1 85//1 77//1
f 78//2 86//2 82//2
f 83//1 87//1 79//1
f 80//2 88//2 84//2
f 89//1 85//1 81//1
f 82//2 86//2 90//2
f 91//1 87//1 83//1
f 84//2 88//2 92//2
f 89//1 93//1 85//1
f 86//2 94//2 90//2
f 91//1 95//1 87//1
f 88//2 96//2 92//2
f 89//1 97//1 93//1
f 94//2 98//2 90//2
f 91//1 99//1 95//1
f 96//2 100//2 92//2
f 101//1 97//1 89//1
f 90//2 98//2 102//2
f 99//1 103//1 95//1
f 96//2 104//2 100//2
f 105//1 101//1 89//1
f 90//2 102//2 106//2
f 103//1 107//1 95//1
f 96//2 108//2 104//2
f 109//1 101//1 105//1
f 106//2 102//2 110//2
f 107//1 111//1 95//1
f 96//2 112//2 108//2
f 113//1 101//1 109//1
f 110//2 102//2 114//2
f 107//1 115//1 111//1
f 112//2 116//2 108//2
f 117//1 113//1 109//1
f 110//2 114//2 118//2
f 107//1 119//1 115//1
f 116//2 120//2 108//2
f 117//1 121//1 113//1
f 114//2 122//2 118//2
f 117//1 109//1 123//1
f 124//2 110//2 118//2
f 119//1 117//1 115//1
f 116//2 118//2 120//2
f 125//1 121//1 117//1
f 118//2 122//2 126//2
f 115//1 117//1 123//1
f 124//2 118//2 116//2
f 127//1 117//1 119//1
f 120//2 118//2 128//2
f 127//1 125//1 117//1
f 118//2 126//2 128//2
