# Blender v2.90.1 OBJ File: ''
# www.blender.org
mtllib M12_Chaffee_b_lights.mtl
o M12_Chaffee_b_lights
v -0.760000 0.870332 -1.889090
v -0.605000 0.870332 -1.889090
v -0.605000 0.646925 -1.889090
v -0.760000 0.646925 -1.889090
v 0.760000 0.646925 -1.889090
v 0.605000 0.646925 -1.889090
v 0.605000 0.870332 -1.889090
v 0.760000 0.870332 -1.889090
vt 23.818899 34.264999
vt 29.921301 25.469500
vt 29.921301 34.264999
vt -23.818899 25.469500
vt -29.921301 34.264999
vt -29.921301 25.469500
vt 23.818899 25.469500
vt -23.818899 34.264999
vn 0.0000 0.0000 -1.0000
usemtl lightB
s 1
f 2/1/1 4/2/1 1/3/1
f 6/4/1 8/5/1 5/6/1
f 2/1/1 3/7/1 4/2/1
f 6/4/1 7/8/1 8/5/1
