# Blender v2.90.1 OBJ File: ''
# www.blender.org
mtllib M12_Chaffee_back_underfill.mtl
o M12_Chaffee_back_underfill
v 0.605000 0.646925 -1.889090
v 0.760000 0.646925 -1.889090
v 0.760000 0.646925 -1.839360
v -0.760000 0.646925 -1.839360
v -0.760000 0.646925 -1.889090
v -0.605000 0.646925 -1.889090
vt 29.921301 72.415703
vt 29.921301 74.373802
vt 23.818899 74.373802
vt -23.818899 74.373802
vt -29.921301 74.373802
vt -29.921301 72.415703
vn 0.0000 -1.0000 -0.0000
usemtl FrontColor
s 1
f 4/1/1 5/2/1 6/3/1
f 6/3/1 1/4/1 4/1/1
f 1/4/1 2/5/1 3/6/1
f 4/1/1 1/4/1 3/6/1
